<?xml version="1.0" encoding="iso-8859-1"?>
<!-- Uploaded to: SVG Repo, www.svgrepo.com, Generator: SVG Repo Mixer Tools -->
<svg height="800px" width="800px" version="1.1" id="Layer_1" xmlns="http://www.w3.org/2000/svg" xmlns:xlink="http://www.w3.org/1999/xlink" 
	 viewBox="0 0 512 512" xml:space="preserve">
<g>
	<circle style="fill:#DBB67E;" cx="227.366" cy="343.782" r="15.58"/>
	<circle style="fill:#DBB67E;" cx="286.269" cy="343.782" r="15.58"/>
</g>
<path style="fill:#6E5B3F;" d="M448.775,201.025c29.048,0,52.608,23.559,52.608,52.618s-23.559,52.608-52.608,52.608
	c-6.2,0-12.157-1.072-17.677-3.036h-0.011c2.251-10.851,3.504-22.073,3.663-33.55h0.021c3.737,3.27,8.632,5.255,14.004,5.255
	c11.743,0,21.277-9.524,21.277-21.277c0-11.753-9.534-21.277-21.277-21.277c-6.434,0-12.178,2.845-16.085,7.336
	c-1.741-11.286-4.534-22.222-8.292-32.701C431.681,203.19,439.973,201.025,448.775,201.025z"/>
<path style="fill:#DBB67E;" d="M448.775,232.366c11.743,0,21.277,9.524,21.277,21.277s-9.534,21.277-21.277,21.277
	c-5.372,0-10.267-1.985-14.004-5.255h-0.021c0.011-0.871,0.021-1.741,0.021-2.622c0-9.29-0.711-18.421-2.081-27.339
	C436.597,235.212,442.341,232.366,448.775,232.366z"/>
<path style="fill:#6E5B3F;" d="M432.69,239.703c1.37,8.918,2.081,18.049,2.081,27.339c0,0.881-0.011,1.752-0.021,2.622
	c-0.159,11.477-1.412,22.699-3.663,33.55c-12.411,60.231-55.22,109.346-111.692,130.622c4.332-5.393,7.973-11.371,10.808-17.784
	c4.385-9.938,6.827-20.916,6.827-32.478c0-10.829-2.166-21.16-6.052-30.599c38.944-5.606,68.873-39.092,68.873-79.586
	c0-44.422-36.013-80.435-80.425-80.435c-25.439,0-48.096,11.817-62.832,30.238c-14.737-18.421-37.393-30.238-62.821-30.238
	c-44.422,0-80.425,36.013-80.425,80.435c0,40.494,29.919,73.98,68.863,79.586c-3.886,9.439-6.041,19.769-6.041,30.599
	c0,11.35,2.357,22.158,6.593,31.947c2.867,6.614,6.593,12.772,11.042,18.315c-56.6-21.319-99.493-70.614-111.788-131.036
	c-2.272-11.084-3.493-22.53-3.589-34.261c-0.011-0.499-0.011-0.998-0.011-1.497c0-8.855,0.648-17.561,1.9-26.076
	c1.688-11.541,4.48-22.71,8.281-33.423c24.483-69.149,90.458-118.678,167.995-118.678c0.021,0,0.042,0,0.064,0
	c77.314,0.032,143.108,49.295,167.74,118.137C428.157,217.481,430.949,228.417,432.69,239.703z"/>
<path style="fill:#F0DF9E;" d="M399.851,273.391c0,40.494-29.93,73.98-68.873,79.586c3.886,9.439,6.052,19.769,6.052,30.599
	c0,11.562-2.442,22.54-6.827,32.478l-1.221-0.531H182.774h-0.011c-4.236-9.789-6.593-20.597-6.593-31.947
	c0-10.829,2.155-21.16,6.041-30.599c-38.944-5.606-68.863-39.092-68.863-79.586c0-44.422,36.003-80.435,80.425-80.435
	c25.428,0,48.085,11.817,62.821,30.238c14.737-18.421,37.394-30.238,62.832-30.238C363.838,192.956,399.851,228.969,399.851,273.391
	z M302.588,343.782c0-9.014-7.305-16.319-16.319-16.319c-9.003,0-16.308,7.305-16.308,16.319s7.305,16.319,16.308,16.319
	C295.283,360.101,302.588,352.796,302.588,343.782z M243.674,343.782c0-9.014-7.305-16.319-16.308-16.319
	c-9.014,0-16.319,7.305-16.319,16.319s7.305,16.319,16.319,16.319C236.369,360.101,243.674,352.796,243.674,343.782z"/>
<path style="fill:#DBB67E;" d="M328.982,415.522l1.221,0.531c-2.835,6.413-6.476,12.39-10.808,17.784
	c-14.747,18.399-37.393,30.174-62.8,30.174s-48.053-11.774-62.79-30.174c-4.449-5.542-8.175-11.7-11.042-18.315h0.011H328.982z"/>
<path style="fill:#6E5B3F;" d="M88.6,207.543c-3.801,10.713-6.593,21.882-8.281,33.423c-3.875-5.224-10.086-8.6-17.094-8.6
	c-11.743,0-21.277,9.524-21.277,21.277c0,11.753,9.534,21.277,21.277,21.277c5.956,0,11.339-2.442,15.204-6.381
	c0.096,11.732,1.317,23.177,3.589,34.261c-5.839,2.23-12.167,3.451-18.792,3.451c-29.048,0-52.608-23.549-52.608-52.608
	s23.559-52.618,52.608-52.618C72.43,201.025,81.083,203.392,88.6,207.543z"/>
<path style="fill:#DBB67E;" d="M78.418,267.042c0,0.499,0,0.998,0.011,1.497c-3.865,3.939-9.248,6.381-15.204,6.381
	c-11.743,0-21.277-9.524-21.277-21.277c0-11.753,9.534-21.277,21.277-21.277c7.007,0,13.218,3.376,17.094,8.6
	C79.066,249.481,78.418,258.187,78.418,267.042z"/>
<path d="M448.775,190.407c-6.243,0-12.462,0.944-18.414,2.749c-10.897-25.568-27.456-48.644-48.346-67.225
	c-4.382-3.899-11.093-3.505-14.988,0.877c-3.898,4.381-3.505,11.092,0.877,14.988c21.002,18.681,37.081,42.464,46.501,68.789
	c3.554,9.906,6.174,20.246,7.792,30.728c1.3,8.46,1.958,17.115,1.958,25.727c0,0.838-0.011,1.665-0.02,2.475
	c-0.149,10.63-1.306,21.242-3.445,31.554c-9.359,45.415-37.866,85.094-76.99,109.082c2.618-8.574,3.948-17.474,3.948-26.578
	c0-7.729-0.965-15.339-2.879-22.74c16.644-4.822,31.693-14.362,43.245-27.583c14.482-16.571,22.455-37.831,22.455-59.861
	c0-50.206-40.841-91.052-91.042-91.052c-23.674,0-45.986,9.045-62.832,25.159c-16.845-16.116-39.153-25.159-62.821-25.159
	c-50.201,0-91.042,40.846-91.042,91.052c0,22.032,7.972,43.289,22.449,59.861c11.551,13.223,26.599,22.762,43.244,27.584
	c-1.908,7.394-2.872,15.002-2.872,22.739c0,9.109,1.342,18.012,3.963,26.592c-39.264-24.054-67.817-63.887-77.098-109.499
	c-2.149-10.488-3.284-21.328-3.373-32.217v-0.012v-0.006c0-0.039-0.001-0.079-0.001-0.117c-0.008-0.425-0.008-0.85-0.008-1.275
	c0-8.216,0.601-16.47,1.788-24.539c1.566-10.699,4.183-21.266,7.786-31.415c23.637-66.754,87.127-111.604,158.048-111.604
	c22.126,0.008,43.619,4.259,63.883,12.632c5.423,2.236,11.629-0.339,13.868-5.758c2.239-5.419-0.339-11.628-5.758-13.868
	c-15.402-6.364-31.43-10.606-47.894-12.704l19.659-19.66c4.146-4.146,4.146-10.869,0-15.016c-4.147-4.145-10.868-4.145-15.016,0
	l-18.185,18.185V47.989c0-5.863-4.754-10.617-10.617-10.617c-5.863,0-10.617,4.754-10.617,10.617v15.244l-18.122-18.122
	c-4.146-4.145-10.869-4.145-15.015,0c-4.146,4.146-4.146,10.869,0,15.016L232.515,79.8c-66.168,8.526-123.629,51.72-149.836,113.672
	c-6.257-2.019-12.832-3.066-19.454-3.066C28.363,190.407,0,218.775,0,253.643c0,34.862,28.363,63.225,63.225,63.225
	c3.71,0,7.378-0.328,10.984-0.96c7.264,27.139,20.623,52.529,39.029,73.986c20.044,23.368,45.635,41.57,74.134,52.815
	c17.343,20.321,42.406,31.918,69.223,31.918c26.816,0,51.886-11.6,69.233-31.918c28.429-11.219,53.968-29.366,73.988-52.655
	c18.429-21.44,31.818-46.829,39.111-73.962c3.242,0.507,6.53,0.775,9.848,0.775c34.862,0,63.225-28.363,63.225-63.225
	C512,218.775,483.637,190.407,448.775,190.407z M63.225,264.303c-5.878,0-10.66-4.782-10.66-10.66s4.782-10.66,10.66-10.66
	c2.146,0,4.175,0.622,5.891,1.763c-0.721,6.121-1.152,12.313-1.275,18.5C66.419,263.931,64.854,264.303,63.225,264.303z
	 M21.234,253.643c0-23.159,18.837-42.002,41.991-42.002c4.181,0,8.328,0.641,12.292,1.853c-0.956,3.235-1.819,6.501-2.599,9.787
	c-3.106-0.996-6.371-1.532-9.693-1.532c-17.586,0-31.894,14.308-31.894,31.894s14.308,31.894,31.894,31.894
	c1.845,0,3.663-0.165,5.443-0.468c0.319,3.362,0.722,6.708,1.218,10.031c-2.19,0.348-4.412,0.533-6.661,0.533
	C40.071,295.634,21.234,276.797,21.234,253.643z M123.965,273.391c0-38.498,31.315-69.818,69.808-69.818
	c21.307,0,41.184,9.569,54.531,26.253c2.014,2.518,5.065,3.985,8.291,3.985c3.225,0,6.276-1.466,8.29-3.985
	c13.348-16.684,33.228-26.253,54.542-26.253c38.492,0,69.808,31.32,69.808,69.818c0,34.476-25.694,64.172-59.769,69.077
	c-3.241,0.466-6.085,2.403-7.708,5.246c-1.623,2.844-1.843,6.277-0.598,9.305c3.486,8.466,5.252,17.401,5.252,26.558
	c0,7.322-1.115,14.467-3.318,21.33H190.108c-2.201-6.861-3.321-14.007-3.321-21.33c0-9.174,1.764-18.109,5.242-26.558
	c1.246-3.028,1.026-6.461-0.597-9.305c-1.623-2.844-4.468-4.78-7.708-5.246C149.657,337.563,123.965,307.868,123.965,273.391z
	 M256.595,453.394c-21.304,0-41.17-9.547-54.51-26.203c-0.278-0.346-0.545-0.701-0.815-1.051h110.662
	c-0.273,0.354-0.541,0.709-0.821,1.057C297.767,443.846,277.897,453.394,256.595,453.394z M445.356,263.747
	c-0.114-6.562-0.57-13.134-1.355-19.636c1.458-0.73,3.074-1.128,4.773-1.128c5.878,0,10.66,4.782,10.66,10.66
	s-4.782,10.66-10.66,10.66C447.486,264.303,446.35,264.083,445.356,263.747z M448.775,295.634c-1.851,0-3.686-0.12-5.501-0.357
	c0.5-3.324,0.909-6.669,1.232-10.027c1.408,0.19,2.834,0.288,4.269,0.288c17.586,0,31.894-14.308,31.894-31.894
	s-14.308-31.894-31.894-31.894c-2.932,0-5.817,0.408-8.585,1.181c-0.786-3.283-1.658-6.541-2.617-9.768
	c3.614-0.999,7.356-1.521,11.202-1.521c23.154,0,41.991,18.842,41.991,42.002C490.766,276.797,471.929,295.634,448.775,295.634z"/>
<path d="M355.491,106.196c-4.99-3.076-11.532-1.522-14.609,3.47s-1.524,11.532,3.47,14.609c0.43,0.264,0.859,0.532,1.287,0.802
	c1.756,1.106,3.713,1.633,5.645,1.633c3.527,0,6.978-1.756,8.996-4.962c3.124-4.961,1.633-11.517-3.329-14.641
	C356.466,106.801,355.979,106.498,355.491,106.196z"/>
<path d="M194.633,267.647c5.556,0,10.076,4.52,10.076,10.076c0,5.863,4.753,10.617,10.617,10.617s10.617-4.754,10.617-10.617
	c0-17.264-14.045-31.31-31.31-31.31s-31.31,14.045-31.31,31.31c0,5.863,4.753,10.617,10.617,10.617s10.617-4.754,10.617-10.617
	C184.557,272.167,189.077,267.647,194.633,267.647z"/>
<path d="M306.771,288.34c5.863,0,10.617-4.754,10.617-10.617c0-5.556,4.525-10.076,10.086-10.076c5.555,0,10.075,4.52,10.075,10.076
	c0,5.863,4.754,10.617,10.617,10.617c5.863,0,10.617-4.754,10.617-10.617c0-17.264-14.045-31.31-31.309-31.31
	c-17.271,0-31.32,14.045-31.32,31.31C296.154,283.586,300.908,288.34,306.771,288.34z"/>
<path d="M200.43,343.782c0,14.852,12.083,26.936,26.936,26.936c14.847,0,26.925-12.083,26.925-26.936s-12.078-26.936-26.925-26.936
	C212.513,316.847,200.43,328.93,200.43,343.782z M227.366,338.081c3.138,0,5.691,2.558,5.691,5.701s-2.553,5.701-5.691,5.701
	c-3.144,0-5.701-2.558-5.701-5.701S224.222,338.081,227.366,338.081z"/>
<path d="M286.269,370.718c14.852,0,26.936-12.083,26.936-26.936s-12.083-26.936-26.936-26.936
	c-14.846,0-26.924,12.083-26.924,26.936S271.422,370.718,286.269,370.718z M286.269,338.081c3.144,0,5.701,2.558,5.701,5.701
	s-2.558,5.701-5.701,5.701c-3.137,0-5.69-2.558-5.69-5.701S283.132,338.081,286.269,338.081z"/>
</svg>