<?xml version="1.0" encoding="iso-8859-1"?>
<!-- Uploaded to: SVG Repo, www.svgrepo.com, Generator: SVG Repo Mixer Tools -->
<svg height="800px" width="800px" version="1.1" id="Layer_1" xmlns="http://www.w3.org/2000/svg" xmlns:xlink="http://www.w3.org/1999/xlink" 
	 viewBox="0 0 512 512" xml:space="preserve">
<path style="fill:#8D663D;" d="M440.43,217.462c-16.104,0-30.964,5.322-42.923,14.299c-17.375-50.721-56.137-95.479-104.168-112.056
	h0.048c-19.081-6.594-31.882-22.36-31.882-42.548v-0.632c0-4.561-3.697-7.708-8.258-7.708s-8.258,3.147-8.258,7.708v0.632
	c0,20.188-12.801,35.953-31.882,42.548l-3.321,312.453c13.246,7.183,28.17,11.025,43.461,11.025
	c22.386,0,43.991-8.222,60.689-23.131c22.75-20.315,54.556-51.306,74.576-81.787c13.042,13.749,31.471,22.338,51.918,22.338
	c39.526,0,71.57-32.043,71.57-71.57S479.957,217.462,440.43,217.462z"/>
<path style="fill:#A57D48;" d="M287.577,129.037c-8.528-6.272-15.225-9.422-27.34-15.962c-2.244-1.211-6.99-4.068-6.99-11.83V68.817
	c-4.561,0-8.258,3.147-8.258,7.708v0.632c0,20.188-12.801,35.953-31.882,42.548h0.043c-49.781,17.186-89.602,64.641-105.976,117.631
	c-11.284-8.985-25.565-14.368-41.11-14.368C29.578,222.968,0,252.546,0,289.032s29.578,66.065,66.065,66.065
	c19.368,0,36.788-8.335,48.872-21.612c19.708,31.987,53.68,65.189,77.621,86.568c5.293,4.726,11.081,8.774,17.227,12.107
	c22.178-0.141,43.555-8.337,60.108-23.118c35.626-31.812,93.461-89.803,93.461-131.02
	C363.355,221.503,332.934,162.392,287.577,129.037z"/>
<circle style="fill:#C9AD80;" cx="66.065" cy="289.032" r="33.032"/>
<g>
	<circle style="fill:#B69362;" cx="440.43" cy="289.032" r="33.032"/>
	<path style="fill:#B69362;" d="M347.402,185.653c-0.747-0.929-1.499-1.847-2.257-2.753c-10.02-11.964-28.224-12.596-39.258-1.561
		l0,0c-29.072,29.072-76.207,29.072-105.278,0l-0.002-0.002c-11.037-11.037-29.237-10.396-39.263,1.566
		c-0.065,0.077-0.13,0.155-0.195,0.232c-25.066,30.014-40.031,69.601-40.031,105.897c0,18.228,22.621,57.903,86.107,114.593
		c3.964,3.539,8.356,6.626,13.058,9.174c10.088,5.47,21.487,8.362,32.964,8.362c17.014,0,33.357-6.228,46.022-17.536
		c63.487-56.69,86.107-96.365,86.107-114.593C385.376,253.385,371.536,215.705,347.402,185.653z"/>
</g>
<path style="fill:#C9AD80;" d="M330.205,174.016c-8.475-1.719-17.689,0.694-24.317,7.322l0,0
	c-29.072,29.072-76.207,29.072-105.278,0l-0.002-0.001c-11.037-11.037-29.237-10.396-39.263,1.566
	c-0.065,0.077-0.13,0.155-0.195,0.232c-25.066,30.014-40.031,69.601-40.031,105.897c0,18.228,22.621,57.903,86.107,114.593
	c3.964,3.539,8.356,6.626,13.058,9.174c9.912,5.374,21.089,8.253,32.363,8.352c6.154-3.333,11.95-7.381,17.248-12.111
	c35.625-31.811,93.46-89.802,93.46-131.019C363.355,241.951,350.96,204.83,330.205,174.016z"/>
<g>
	<path style="fill:#B69362;" d="M158.124,268.183c-1.687,0-3.389-0.515-4.857-1.584c-3.686-2.686-4.497-7.851-1.811-11.537
		c7.143-9.804,17.396-17.262,28.869-20.999c4.338-1.413,8.997,0.958,10.41,5.294c1.413,4.336-0.957,8.997-5.294,10.411
		c-8.194,2.669-15.524,8.004-20.636,15.021C163.189,267.006,160.674,268.183,158.124,268.183z"/>
	<path style="fill:#B69362;" d="M348.37,268.183c-2.549,0-5.065-1.177-6.68-3.396c-5.113-7.017-12.442-12.351-20.636-15.021
		c-4.336-1.413-6.707-6.074-5.294-10.411c1.413-4.336,6.069-6.707,10.41-5.294c11.473,3.738,21.725,11.195,28.869,20.999
		c2.686,3.686,1.875,8.852-1.811,11.537C351.759,267.669,350.057,268.183,348.37,268.183z"/>
	<path style="fill:#B69362;" d="M253.247,373.265c-13.661,0-24.774-11.114-24.774-24.774v-22.022
		c0-13.66,11.113-24.774,24.774-24.774s24.774,11.114,24.774,24.774v22.022C278.022,362.15,266.908,373.265,253.247,373.265z"/>
</g>
<path style="fill:#474641;" d="M253.247,356.748c-4.561,0-8.258-3.696-8.258-8.258v-22.022c0-4.562,3.697-8.258,8.258-8.258
	c4.561,0,8.258,3.696,8.258,8.258v22.022C261.505,353.052,257.808,356.748,253.247,356.748z"/>
<path style="fill:#A57D48;" d="M261.505,297.29c-4.561,0-8.258-3.696-8.258-8.258c0,4.562-3.697,8.258-8.258,8.258
	s-8.258-3.696-8.258-8.258c0-9.107,7.409-16.516,16.516-16.516c9.107,0,16.516,7.409,16.516,16.516
	C269.763,293.594,266.066,297.29,261.505,297.29z"/>
<g>
	<path style="fill:#474641;" d="M214.71,297.29c-4.562,0-8.258-3.697-8.258-8.258c0-4.554-3.704-8.258-8.258-8.258
		c-4.554,0-8.258,3.704-8.258,8.258c0,4.561-3.696,8.258-8.258,8.258c-4.562,0-8.258-3.697-8.258-8.258
		c0-13.661,11.114-24.774,24.774-24.774c13.66,0,24.774,11.113,24.774,24.774C222.968,293.593,219.271,297.29,214.71,297.29z"/>
	<path style="fill:#474641;" d="M324.817,297.29c-4.562,0-8.258-3.697-8.258-8.258c0-4.554-3.704-8.258-8.258-8.258
		c-4.554,0-8.258,3.704-8.258,8.258c0,4.561-3.696,8.258-8.258,8.258c-4.562,0-8.258-3.697-8.258-8.258
		c0-13.661,11.114-24.774,24.774-24.774s24.774,11.113,24.774,24.774C333.075,293.593,329.379,297.29,324.817,297.29z"/>
</g>
</svg>